<?xml version="1.0" encoding="utf-8"?>
<!-- Generator: Adobe Illustrator 21.0.1, SVG Export Plug-In . SVG Version: 6.00 Build 0)  -->
<svg version="1.1" id="Layer_1" xmlns="http://www.w3.org/2000/svg" xmlns:xlink="http://www.w3.org/1999/xlink" x="0px" y="0px"
	 viewBox="0 0 400 400" style="enable-background:new 0 0 400 400;" xml:space="preserve">
<style type="text/css">
	.st0{fill:#FD5440;}
	.st1{fill:#4C4C4C;}
	.st2{fill:#FFC93A;}
	.st3{fill:#8AD7F8;}
	.st4{fill:#3E276F;}
	.st5{fill:none;stroke:#4C4C4C;stroke-miterlimit:10;}
</style>
<g>
	<g>
		<rect x="240.8" y="114.8" class="st0" width="23.9" height="41.7"/>
		<g>
			<path class="st1" d="M268.2,160h-30.9v-48.7h30.9V160z M244.3,153h16.9v-34.7h-16.9V153z"/>
		</g>
	</g>
	<g>
		<rect x="231.7" y="93.6" class="st0" width="42.1" height="22.6"/>
		<g>
			<path class="st1" d="M277.3,119.6h-49.1V90.1h49.1V119.6z M235.2,112.6h35.1V97.1h-35.1V112.6z"/>
		</g>
	</g>
	<g>
		<path class="st2" d="M103.2,197.3v95.9h170.1v-95.9c-33.4-33.4-52.1-52.1-85.1-85.1l0,0C155.3,145.7,136.7,164.3,103.2,197.3z"/>
		<g>
			<path class="st1" d="M276.9,296.7H99.7V195.8l1-1c33.6-33.2,51.9-51.4,85-85l2.5-2.5l88.6,88.6V296.7z M106.7,289.7h163.1v-91
				l-81.6-81.6c-31.3,31.7-49.5,49.9-81.6,81.6V289.7z"/>
		</g>
	</g>
	<g>
		<path class="st1" d="M173.1,290.6h-51.2v-50.3c0-14.3,11.7-25.6,25.6-25.6l0,0c14.3,0,25.6,11.7,25.6,25.6V290.6z"/>
	</g>
	<g>
		<rect x="188.3" y="217.3" class="st1" width="66.8" height="58.6"/>
	</g>
	<g>
		<rect x="195.2" y="224.2" class="st3" width="23" height="44.7"/>
		<rect x="225.2" y="224.2" class="st3" width="23" height="44.7"/>
	</g>
	<g>
		<path class="st0" d="M289.4,179.5l-90.7-90.7c-5.2-5.2-14.3-5.2-19.5,0l-90.3,90.7c-5.2,5.2-5.2,14.3,0,19.5
			c5.2,5.2,14.3,5.2,19.5,0l80.7-80.7l80.7,80.7c5.2,5.2,14.3,5.2,19.5,0C294.6,193.4,294.6,184.7,289.4,179.5z"/>
		<g>
			<path class="st1" d="M279.7,206.4c-4.6,0-9.1-1.8-12.2-4.9l-78.3-78.3l-78.3,78.3c-3.1,3.1-7.6,4.9-12.2,4.9s-9.1-1.8-12.2-4.9
				c-6.5-6.5-6.5-18,0-24.5l90.3-90.7c6.5-6.5,18-6.5,24.5,0l90.7,90.7c6.6,6.6,6.6,17.3,0.1,24.4l-0.1,0.1
				C288.8,204.6,284.3,206.4,279.7,206.4z M189.2,113.4l83.2,83.2c1.8,1.8,4.5,2.9,7.3,2.9c2.8,0,5.4-1,7.2-2.8
				c3.9-4.2,3.9-10.8,0-14.6l-90.7-90.7c-3.8-3.8-10.8-3.8-14.6,0L91.4,182c-3.8,3.8-3.8,10.8,0,14.6c1.8,1.8,4.5,2.9,7.3,2.9
				s5.5-1,7.3-2.9L189.2,113.4z"/>
		</g>
	</g>
	<g id="Tracking_1_">
		<path class="st0" d="M285.7,266.5c-1.3,0-2.4-1.1-2.4-2.4v-21.3c0-1.3,1.1-2.4,2.4-2.4h16.6l-8.1-8.1c-0.9-0.9-2.1-1.4-3.4-1.4
			h-85.7v56.9c0,2.6,2.1,4.7,4.7,4.7h109c2.6,0,4.7-2.1,4.7-4.7v-21.3H285.7z"/>
		<path class="st3" d="M323.6,261.7v4.7h-37.9c-1.3,0-2.4-1.1-2.4-2.4v-21.3c0-1.3,1.1-2.4,2.4-2.4h16.6L323.6,261.7z"/>
		<path class="st2" d="M205.2,271.2h118.4l0,0v16.6c0,2.6-2.1,4.7-4.7,4.7h-109c-2.6,0-4.7-2.1-4.7-4.7V271.2L205.2,271.2z"/>
		<circle class="st0" cx="231.2" cy="292.5" r="14.2"/>
		<circle class="st0" cx="297.6" cy="292.5" r="14.2"/>
		<g>
			<path class="st1" d="M262,233.3v35.5h4.7v-35.5h24.1c0.6,0,1.2,0.2,1.7,0.7l4,4h-10.9c-2.6,0-4.7,2.1-4.7,4.7v21.3
				c0,2.6,2.1,4.7,4.7,4.7h35.5v19c0,1.3-1.1,2.4-2.4,2.4H314c-1.3-9.1-9.7-15.3-18.7-14c-7.3,1-13,6.8-14,14h-33.5
				c-1.3-9.1-9.7-15.3-18.7-14c-7.3,1-13,6.8-14,14h-4.9c-1.3,0-2.4-1.1-2.4-2.4v-21.3h-4.7v21.3c0,3.9,3.2,7.1,7.1,7.1h4.9
				c0.5,3.6,2.2,6.9,4.8,9.5h-35.8v4.7h113.7c8.2,0,15.2-6.1,16.4-14.2h4.9c3.9,0,7.1-3.2,7.1-7.1v-26.1c0-0.6-0.2-1.2-0.7-1.7
				l-29.4-29.4c-1.3-1.3-3.1-2.1-5-2.1h-40.7l-46.8,0l-0.3,35.5h4.4l0.6-31.1L262,233.3z M219.4,292.5c0-6.5,5.3-11.8,11.8-11.8
				s11.8,5.3,11.8,11.8c0,6.5-5.3,11.8-11.8,11.8C224.7,304.4,219.4,299.1,219.4,292.5z M242.8,304.4c2.6-2.5,4.3-5.9,4.8-9.5h33.5
				c0.5,3.6,2.2,6.9,4.8,9.5H242.8z M297.6,304.4c-6.5,0-11.8-5.3-11.8-11.8c0-6.5,5.3-11.8,11.8-11.8c6.5,0,11.8,5.3,11.8,11.8
				C309.4,299.1,304.1,304.4,297.6,304.4z M285.7,264.1v-21.3h15.6l19.9,19.9v1.4H285.7z"/>
		</g>
		<g>
			<rect x="228.9" y="290.2" class="st1" width="4.7" height="4.7"/>
		</g>
		<g>
			<rect x="295.2" y="290.2" class="st1" width="4.7" height="4.7"/>
		</g>
		<g>
			<rect x="273.9" y="273.6" class="st1" width="9.5" height="4.7"/>
		</g>
		<line class="st4" x1="250.2" y1="230.9" x2="205.2" y2="230.9"/>
	</g>
	<path class="st2" d="M151.2,262.9c0,0-5.4-10-2.7-12.7c2.7-2.7,12.8,12.7,12.8,12.7H151.2z"/>
	<path class="st2" d="M170.2,262c0,0-2.7-1.8-2.7-3.6s0-0.9,0-0.9l-0.9,0.9l-1.8-0.9v0.9H163v0.9h-2.7v0.9l-2.7-0.9v2l-1.8-0.2
		l0.9,1.8H172L170.2,262z"/>
	<g>
		<rect x="146.8" y="263.2" class="st0" width="27.4" height="27.4"/>
		<g>
			<path class="st1" d="M174.2,291.1h-27.4c-0.3,0-0.5-0.2-0.5-0.5v-27.4c0-0.3,0.2-0.5,0.5-0.5h27.4c0.3,0,0.5,0.2,0.5,0.5v27.4
				C174.7,290.9,174.4,291.1,174.2,291.1z M147.3,290.1h26.4v-26.4h-26.4V290.1z"/>
		</g>
	</g>
	<line class="st5" x1="146.8" y1="282.9" x2="174.2" y2="282.9"/>
	<g>
		<line class="st1" x1="153.2" y1="270.7" x2="157" y2="270.7"/>
		<g>
			<path class="st1" d="M157,271.7h-3.8c-0.6,0-1-0.4-1-1s0.4-1,1-1h3.8c0.6,0,1,0.4,1,1S157.5,271.7,157,271.7z"/>
		</g>
	</g>
	<g>
		<line class="st1" x1="165" y1="270.7" x2="168.8" y2="270.7"/>
		<g>
			<path class="st1" d="M168.8,271.7H165c-0.6,0-1-0.4-1-1s0.4-1,1-1h3.8c0.6,0,1,0.4,1,1S169.3,271.7,168.8,271.7z"/>
		</g>
	</g>
	<g>
		<g>
			<g>
				<path class="st1" d="M160.4,277.6c-2.3,0-4.1-0.7-5.2-2c-1.8-2.1-1.3-4.9-1.3-5c0.1-0.5,0.6-0.9,1.1-0.8
					c0.5,0.1,0.9,0.6,0.8,1.1c0,0-0.3,2.1,0.9,3.4c0.8,0.9,2,1.3,3.7,1.3c0.2,0,5.5-0.1,5.8-4.9c0-0.6,0.5-1,1-1c0.6,0,1,0.5,1,1
					C167.9,276.2,163,277.6,160.4,277.6z"/>
			</g>
		</g>
	</g>
</g>
</svg>
