<?xml version="1.0" encoding="utf-8"?>
<!-- Generator: Adobe Illustrator 21.0.1, SVG Export Plug-In . SVG Version: 6.00 Build 0)  -->
<svg version="1.1" id="Layer_1" xmlns="http://www.w3.org/2000/svg" xmlns:xlink="http://www.w3.org/1999/xlink" x="0px" y="0px"
	 viewBox="0 0 400 400" style="enable-background:new 0 0 400 400;" xml:space="preserve">
<style type="text/css">
	.st0{fill:#FD5440;}
	.st1{fill:#FFC93A;}
	.st2{fill:#FFFFFF;}
</style>
<path class="st0" d="M242.7,144.3c1.7,0.9,3.9,0.3,4.8-1.4c4.2-7.8,6.4-16.6,6.4-25.4C254,88,230,64,200.5,64
	c-29.5,0-53.5,24-53.5,53.5s24,53.5,53.5,53.5c8.9,0,17.7-2.2,25.4-6.4c1.7-0.9,2.4-3.1,1.4-4.8s-3.1-2.4-4.8-1.4
	c-6.7,3.6-14.3,5.6-22,5.6c-25.6,0-46.3-20.8-46.3-46.3s20.8-46.3,46.3-46.3s46.3,20.8,46.3,46.3c0,7.7-1.9,15.3-5.6,22
	C240.4,141.2,241,143.4,242.7,144.3z"/>
<path class="st1" d="M235.8,156.3c0.9,0,1.8-0.3,2.5-1c1.4-1.4,1.4-3.6,0-5c-1.4-1.4-3.6-1.4-5,0l0,0c-1.4,1.4-1.4,3.6,0,5
	C234,156,234.9,156.3,235.8,156.3z"/>
<path class="st0" d="M285,211H115c-6.6,0-12-5.4-12-12v-0.8c0-6.6,5.4-12,12-12h170c6.6,0,12,5.4,12,12v0.8
	C297,205.6,291.6,211,285,211z"/>
<path class="st0" d="M285,252.9H115c-6.6,0-12-5.4-12-12v-0.8c0-6.6,5.4-12,12-12h170c6.6,0,12,5.4,12,12v0.8
	C297,247.5,291.6,252.9,285,252.9z"/>
<path class="st0" d="M285,292.8H115c-6.6,0-12-5.4-12-12V280c0-6.6,5.4-12,12-12h170c6.6,0,12,5.4,12,12v0.8
	C297,287.4,291.6,292.8,285,292.8z"/>
<path class="st1" d="M237,337.8h-71c-6.6,0-12-5.4-12-12V325c0-6.6,5.4-12,12-12h71c6.6,0,12,5.4,12,12v0.8
	C249,332.4,243.6,337.8,237,337.8z"/>
<g>
	<g>
		<circle class="st2" cx="125" cy="199" r="5"/>
	</g>
	<g>
		<circle class="st2" cx="139" cy="199" r="5"/>
	</g>
	<g>
		<circle class="st2" cx="154" cy="199" r="5"/>
	</g>
	<g>
		<circle class="st2" cx="170" cy="199" r="5"/>
	</g>
</g>
<g>
	<g>
		<path class="st1" d="M220,122.9c0.5,0.2,0.8,0.6,1.1,1.1c0.3,0.5,0.4,1,0.4,1.6v11.7c0,0.8-0.2,1.5-0.7,2c-0.5,0.5-1,0.8-1.7,0.8
			h-37.9c-0.7,0-1.3-0.3-1.7-0.8c-0.5-0.5-0.7-1.2-0.7-2v-11.7c0-0.6,0.1-1.1,0.4-1.6s0.6-0.8,1.1-1l14.8-6.9
			c-1.8-1.1-3.2-2.6-4.3-4.6c-1.1-2-1.6-4.2-1.6-6.7c0-1.8,0.3-3.4,0.8-5c0.6-1.5,1.3-2.9,2.3-4c1-1.1,2.1-2,3.5-2.7
			c1.3-0.7,2.8-1,4.3-1c1.5,0,2.9,0.3,4.3,1c1.3,0.7,2.5,1.6,3.5,2.7c1,1.1,1.8,2.5,2.3,4c0.6,1.5,0.8,3.2,0.8,5
			c0,2.4-0.5,4.6-1.6,6.6s-2.4,3.5-4.2,4.6L220,122.9L220,122.9z"/>
	</g>
</g>
</svg>
