<?xml version="1.0" encoding="utf-8"?>
<!-- Generator: Adobe Illustrator 21.0.1, SVG Export Plug-In . SVG Version: 6.00 Build 0)  -->
<svg version="1.1" id="Layer_1" xmlns="http://www.w3.org/2000/svg" xmlns:xlink="http://www.w3.org/1999/xlink" x="0px" y="0px"
	 viewBox="0 0 400 400" style="enable-background:new 0 0 400 400;" xml:space="preserve">
<style type="text/css">
	.st0{fill:#FFC93A;}
	.st1{fill:#FD5440;}
	.st2{fill:#4C4C4C;}
</style>
<path class="st0" d="M161.7,260.3l-48.1,48.1c-3.5,3.5-9.1,3.5-12.5,0l-11.9-11.9c-3.5-3.5-3.5-9.1,0-12.5l48.1-48.1
	c3.5-3.5,9.1-3.5,12.5,0l11.9,11.9C165.2,251.2,165.2,256.8,161.7,260.3z"/>
<path class="st1" d="M225.5,84c-16.3,0-32.3,4.6-46,13.3c-2.1,1.3-2.8,4.2-1.4,6.3s4.2,2.8,6.3,1.4c12.3-7.8,26.6-11.9,41.2-11.9
	c42.7,0,77.4,34.7,77.4,77.4s-34.7,77.4-77.4,77.4s-77.4-34.7-77.4-77.4c0-14.6,4.1-28.9,11.9-41.2c1.3-2.1,0.7-4.9-1.4-6.3
	s-4.9-0.7-6.3,1.4c-8.7,13.8-13.3,29.7-13.3,46c0,18.9,6.1,36.4,16.5,50.7l-7.8,7.8c-5.1-2.4-11.3-1.5-15.5,2.7L83,280.8
	c-2.6,2.6-4,6-4,9.7c0,3.7,1.4,7.1,4,9.7L95.9,313c2.6,2.6,6,4,9.7,4c3.7,0,7.1-1.4,9.7-4l49.2-49.2c2.6-2.6,4-6,4-9.7
	c0-2.1-0.5-4.1-1.3-5.9l7.8-7.8c14.3,10.3,31.8,16.5,50.7,16.5c47.7,0,86.5-38.8,86.5-86.5S273.2,84,225.5,84z M158,257.3
	l-49.2,49.2c-0.9,0.9-2,1.3-3.2,1.3c-1.2,0-2.4-0.5-3.2-1.3l-12.9-12.9c-0.9-0.9-1.3-2-1.3-3.2c0-1.2,0.5-2.4,1.3-3.2l49.2-49.2
	c0.9-0.9,2.1-1.3,3.2-1.3c1.2,0,2.3,0.4,3.2,1.3c0,0,0,0,0,0l12.9,12.9c0.9,0.9,1.3,2,1.3,3.2C159.3,255.4,158.8,256.5,158,257.3z
	 M161.2,241.3l-6.4-6.4l6.6-6.6c2,2.3,4.2,4.4,6.4,6.4L161.2,241.3z"/>
<path class="st1" d="M279.4,204.8c2.2,1.2,5,0.4,6.2-1.8c5.4-9.9,8.2-21.1,8.2-32.5c0-37.6-30.6-68.3-68.3-68.3
	c-37.6,0-68.3,30.6-68.3,68.3s30.6,68.3,68.3,68.3c11.3,0,22.6-2.8,32.5-8.2c2.2-1.2,3-4,1.8-6.2c-1.2-2.2-4-3-6.2-1.8
	c-8.6,4.7-18.3,7.1-28.1,7.1c-32.6,0-59.2-26.5-59.2-59.2s26.5-59.2,59.2-59.2s59.2,26.5,59.2,59.2c0,9.8-2.5,19.6-7.1,28.1
	C276.4,200.8,277.2,203.6,279.4,204.8z"/>
<path class="st0" d="M167.6,117.1c1.1,0,2.2-0.4,3.1-1.2c1.9-1.7,2-4.6,0.3-6.4c-1.7-1.9-4.6-2-6.4-0.3l0,0c-1.9,1.7-2,4.6-0.3,6.4
	C165.1,116.6,166.4,117.1,167.6,117.1z"/>
<path class="st0" d="M270.6,220.1c1.2,0,2.3-0.4,3.2-1.3c1.8-1.8,1.8-4.7,0-6.4c-1.8-1.8-4.7-1.8-6.4,0l0,0c-1.8,1.8-1.8,4.7,0,6.4
	C268.3,219.6,269.4,220.1,270.6,220.1z"/>
<path class="st0" d="M209.6,142.1c0,1.8,0,54.7,0,54.7c0,1.6,1.3,2.9,2.9,2.9h45c1.6,0,2.9-1.3,2.9-2.9c0-1.5,0-51.7,0-54.7
	C258.1,142.1,212.1,142.1,209.6,142.1z"/>
<path class="st1" d="M188.1,160.7v36.2c0,1.6,1.3,2.9,2.9,2.9h31.2c1.6,0,2.9-1.3,2.9-2.9c0-0.6,0-34.7,0-36.2
	C222.9,160.7,189.2,160.7,188.1,160.7z"/>
<g>
	<circle class="st2" cx="254.7" cy="181.3" r="1.5"/>
</g>
<g>
	<path class="st2" d="M191.1,201.3h66.5c2.4,0,4.4-2,4.4-4.4v-54.7c0-0.8-0.7-1.5-1.5-1.5h-10.3c0-8.1-6.6-14.7-14.7-14.7
		c-8.1,0-14.7,6.6-14.7,14.7h-11.2c-0.8,0-1.5,0.7-1.5,1.5v17.1h-20c-0.8,0-1.5,0.7-1.5,1.5v36.2
		C186.7,199.3,188.7,201.3,191.1,201.3z M189.6,196.8v-5.3h34.1v5.3c0,0.8-0.7,1.5-1.5,1.5h-31.2
		C190.3,198.3,189.6,197.7,189.6,196.8z M257.6,198.3h-31.1c0.2-0.5,0.3-1,0.3-1.5v-5.3H259v5.3C259,197.7,258.4,198.3,257.6,198.3z
		 M235.5,128.9c6.5,0,11.8,5.3,11.8,11.8h-23.5C223.8,134.2,229,128.9,235.5,128.9z M211.1,143.6h9.7v6.8h-1.5c-0.6,0-1.2,0.4-1.4,1
		c-0.3,1,0.4,1.9,1.4,1.9h5.9c0.6,0,1.2-0.4,1.4-1c0.3-1-0.4-1.9-1.4-1.9h-1.5v-6.8h23.5v6.8h-1.5c-0.6,0-1.2,0.4-1.4,1
		c-0.3,1,0.4,1.9,1.4,1.9h5.9c0.6,0,1.2-0.4,1.4-1c0.3-1-0.4-1.9-1.4-1.9h-1.5v-6.8h8.8v45h-32.4v-27.9c0-0.8-0.7-1.5-1.5-1.5h-14.1
		V143.6z M223.7,162.1v26.5h-34.1v-26.5H223.7z"/>
</g>
<g>
	<path class="st2" d="M197.9,171v2.8c0,4.7,3.7,8.7,8.4,8.9c5.1,0.2,9.3-3.8,9.3-8.8V171c0.9,0,1.6-0.8,1.5-1.7
		c-0.1-0.7-0.8-1.3-1.5-1.3h-2.8c-0.7,0-1.4,0.5-1.5,1.3c-0.1,0.9,0.6,1.7,1.5,1.7v2.8c0,3-2.5,5.8-5.5,6c-3.4,0.2-6.2-2.5-6.2-5.9
		V171c0.9,0,1.6-0.8,1.5-1.7c-0.1-0.7-0.8-1.3-1.5-1.3h-2.8c-0.7,0-1.4,0.5-1.5,1.3C196.3,170.2,197,171,197.9,171z"/>
</g>
<g>
	<path class="st2" d="M256.1,175.3v-11.7c0-0.7-0.5-1.4-1.3-1.5c-0.9-0.1-1.7,0.6-1.7,1.5v11.8c0,0.9,0.8,1.6,1.7,1.5
		C255.6,176.7,256.1,176.1,256.1,175.3z"/>
</g>
<circle class="st0" cx="190.3" cy="187.7" r="13.4"/>
<g>
	<path class="st1" d="M190.3,181.7c-3.3,0-6,2.7-6,6s2.7,6,6,6s6-2.7,6-6C196.3,184.4,193.6,181.7,190.3,181.7z"/>
	<circle class="st0" cx="190.3" cy="187.7" r="2"/>
	<path class="st1" d="M201.2,178.3c-1-1.1-2.1-2.1-3.4-2.9l-0.6,0.8l-3,3.9c-0.2,0.3-0.2,0.8,0.1,1.1l2.6,2.6
		c0.2,0.2,0.4,0.3,0.7,0.2l0,0c0.5,0,0.9,0.2,1,0.7c0,0.3,0,0.6-0.3,0.8L198,186c-0.2,0.1-0.3,0.3-0.3,0.6l-0.4,4.1
		c0,0.3,0.1,0.6,0.4,0.8l5.5,2.5c0.8-1.6,1.3-3.5,1.4-5.3c0-0.3,0-0.6,0-1C204.8,184.2,203.5,180.9,201.2,178.3z"/>
	<path class="st1" d="M197.1,176.4l-0.7-0.6c-0.3-0.3-0.8-0.3-1.2,0l-1.6,1.1c-0.4,0.3-0.5,0.9-0.2,1.4c0,0,0,0.1,0.1,0.1l1.2,1.2"
		/>
	<path class="st1" d="M198.3,191.7L198,192c-0.4,0.4-0.4,1,0,1.4l1.4,1.4c0.3,0.3,0.9,0.4,1.3,0l1.5-1.3"/>
</g>
<g>
	<g>
		<path class="st2" d="M190.3,181.2c-3.6,0-6.5,2.9-6.5,6.5s2.9,6.5,6.5,6.5s6.5-2.9,6.5-6.5S193.9,181.2,190.3,181.2z M190.3,193.2
			c-3,0-5.5-2.4-5.5-5.5c0-3,2.4-5.5,5.5-5.5s5.5,2.4,5.5,5.5S193.4,193.2,190.3,193.2z"/>
	</g>
</g>
<g>
	<g>
		<path class="st2" d="M190.3,185.2c-1.4,0-2.5,1.1-2.5,2.5s1.1,2.5,2.5,2.5s2.5-1.1,2.5-2.5S191.7,185.2,190.3,185.2z M190.3,189.2
			c-0.8,0-1.5-0.6-1.5-1.5s0.6-1.5,1.5-1.5s1.5,0.6,1.5,1.5S191.2,189.2,190.3,189.2z"/>
	</g>
</g>
<g>
	<rect x="189.8" y="183.2" class="st2" width="1" height="1"/>
</g>
<g>
	<rect x="193.8" y="186.2" class="st2" width="1" height="1"/>
</g>
<g>
	<rect x="185.9" y="186.2" class="st2" width="1" height="1"/>
</g>
<g>
	<rect x="187.4" y="190.7" class="st2" width="1" height="1"/>
</g>
<g>
	<rect x="192.3" y="190.7" class="st2" width="1" height="1"/>
</g>
<g>
	<path class="st2" d="M190.3,195.2c-4.1,0-7.5-3.3-7.5-7.5s3.3-7.5,7.5-7.5c0.3,0,0.6,0,0.9,0l0.1-1c-4.6-0.6-8.8,2.7-9.4,7.4
		c-0.6,4.7,2.7,8.8,7.4,9.4c0.7,0.1,1.4,0.1,2.1,0l-0.1-1C191,195.2,190.6,195.2,190.3,195.2z"/>
</g>
<g>
	<g>
		<path class="st2" d="M198.1,175c-0.2-0.1-0.5-0.1-0.6,0.1l-0.3,0.4c-0.2-0.1-0.4-0.2-0.6-0.3c0,0-0.1,0-0.1,0
			c-6.9-3.3-15.3-0.4-18.6,6.5c-3.3,6.9-0.4,15.3,6.5,18.6c6.8,3.3,14.9,0.6,18.3-6l0.5,0.2c0,0,0.1,0,0.2,0c0.2,0,0.3-0.1,0.4-0.3
			C207.1,187.3,204.7,179,198.1,175z M194.6,178.9l-0.8-0.8c-0.2-0.2-0.2-0.5,0-0.7l0,0l1.6-1.1c0.1-0.1,0.3-0.1,0.4,0h0
			c0,0,0.1,0,0.1,0l0.3,0.3L194.6,178.9z M190.3,200.6c-7.2,0-12.9-5.8-12.9-12.9s5.8-12.9,12.9-12.9c1.4,0,2.9,0.2,4.3,0.7
			l-1.3,0.9c-0.7,0.4-0.8,1.4-0.4,2.1c0,0,0.1,0.1,0.1,0.2l0.9,0.9l-0.1,0.2c-0.4,0.5-0.3,1.3,0.1,1.8l2.6,2.6
			c0.3,0.3,0.7,0.4,1.1,0.4c0.1,0,0.3,0,0.4,0.2c0,0.1,0,0.3-0.1,0.4l-0.3,0.3c-0.3,0.2-0.4,0.5-0.5,0.9l-0.4,4.1
			c0,0.5,0.2,1,0.6,1.3c-0.4,0.6-0.3,1.4,0.2,1.9l1.4,1.4c0.4,0.4,1.1,0.5,1.7,0.3C198.3,198.7,194.4,200.6,190.3,200.6z
			 M198.3,192.3L198.3,192.3l3,1.3l-0.9,0.8c-0.2,0.1-0.5,0.1-0.7,0l-1.4-1.4C198.1,192.8,198.1,192.5,198.3,192.3z M203.1,193.3
			L198,191c-0.1-0.1-0.2-0.2-0.1-0.3l0.4-4.1c0-0.1,0-0.2,0.1-0.2l0.3-0.3c0.6-0.5,0.6-1.3,0.2-1.9c-0.3-0.3-0.8-0.5-1.2-0.5
			c-0.1,0-0.2,0-0.3-0.1l-2.6-2.6c-0.1-0.1-0.1-0.3,0-0.5l3.3-4.4c0.3,0.2,0.5,0.4,0.8,0.6l-2.4,3.2c-0.4,0.6-0.4,1.4,0.1,1.9
			l0.5,0.5c0.3,0.3,0.8,0.5,1.2,0.4l0.9-0.1c0.9-0.1,1.9,0.4,2.2,1.3c0.3,0.9,0,2-0.9,2.5l-1.1,0.6c-0.4,0.2-0.7,0.7-0.7,1.3v0.7
			c0,0.6,0.3,1.1,0.9,1.4l3.9,1.5C203.5,192.4,203.3,192.9,203.1,193.3z M204.3,188.2h-3.5v1h3.4c0,0.6-0.1,1.2-0.3,1.8l-3.8-1.5
			c-0.2-0.1-0.3-0.2-0.3-0.4v-0.7c0-0.2,0.1-0.3,0.2-0.4l1.1-0.6c1.5-0.8,2-2.7,1.1-4.2c-0.6-1.1-1.8-1.7-3.1-1.5l-0.9,0.1
			c-0.1,0-0.3,0-0.4-0.1l-0.5-0.5c-0.2-0.2-0.2-0.4,0-0.6l2.3-3.1c0.3,0.3,0.7,0.6,1,0.9l-2.6,2.1l0.6,0.7l2.6-2.1
			c2,2.5,3.1,5.6,3.1,8.7C204.3,187.9,204.3,188.1,204.3,188.2z"/>
	</g>
</g>
<g>
	<path class="st2" d="M194.1,194.2l0.5,0.8c0.8-0.4,1.5-1,2.1-1.7l-0.7-0.6C195.4,193.2,194.8,193.8,194.1,194.2z"/>
</g>
<path class="st0" d="M188.3,160.8c0,0-5.1-9.3-2.5-11.9c2.5-2.5,12,11.9,12,11.9H188.3z"/>
<path class="st0" d="M206.1,160c0,0-2.5-1.7-2.5-3.4s0-0.8,0-0.8l-0.8,0.8l-1.7-0.8v0.8h-1.7v0.8h-2.5v0.8l-2.5-0.8v1.9l-1.7-0.2
	l0.8,1.7h14.4L206.1,160z"/>
</svg>
