<?xml version="1.0" encoding="utf-8"?>
<!-- Generator: Adobe Illustrator 21.0.1, SVG Export Plug-In . SVG Version: 6.00 Build 0)  -->
<svg version="1.1" id="Layer_1" xmlns="http://www.w3.org/2000/svg" xmlns:xlink="http://www.w3.org/1999/xlink" x="0px" y="0px"
	 viewBox="0 0 400 400" style="enable-background:new 0 0 400 400;" xml:space="preserve">
<style type="text/css">
	.st0{fill:#FFC93A;}
	.st1{fill:#FD5440;}
	.st2{fill:#4C4C4C;}
</style>
<g>
	<path class="st0" d="M82.6,107.1h79.4c6.7,0,12.2,5.5,12.2,12.2v152.8c0,6.7-5.5,12.2-12.2,12.2H82.6c-6.7,0-12.2-5.5-12.2-12.2
		V119.3C70.4,112.5,75.9,107.1,82.6,107.1z"/>
	<path class="st1" d="M70.4,119.3h103.9v140.6H70.4V119.3z"/>
	<path class="st0" d="M128.5,272.1c0,3.4-2.7,6.1-6.1,6.1s-6.1-2.7-6.1-6.1c0-3.4,2.7-6.1,6.1-6.1S128.5,268.7,128.5,272.1z"/>
	<g>
		<g>
			<path class="st2" d="M177.4,272.1V119.3c0-8.4-6.8-15.3-15.3-15.3H82.6c-8.4,0-15.3,6.8-15.3,15.3v152.8
				c0,8.4,6.8,15.3,15.3,15.3h79.4C170.5,287.3,177.3,280.5,177.4,272.1z M73.5,122.3h97.8v134.4H73.5V122.3z M82.6,110.1h79.4
				c3.9,0,7.3,2.5,8.6,6.1H74C75.3,112.6,78.8,110.1,82.6,110.1z M82.6,281.2c-5.1,0-9.2-4.1-9.2-9.2v-9.2h97.8v9.2
				c0,5.1-4.1,9.2-9.2,9.2H82.6z"/>
		</g>
	</g>
	<g>
		<g>
			<path class="st2" d="M131.5,272.1c0-5.1-4.1-9.2-9.2-9.2s-9.2,4.1-9.2,9.2s4.1,9.2,9.2,9.2S131.5,277.1,131.5,272.1z
				 M122.4,275.1c-1.7,0-3.1-1.4-3.1-3.1c0-1.7,1.4-3.1,3.1-3.1s3.1,1.4,3.1,3.1C125.4,273.7,124,275.1,122.4,275.1z"/>
		</g>
	</g>
	<path class="st0" d="M245.9,107.1h79.4c6.7,0,12.2,5.5,12.2,12.2v152.8c0,6.7-5.5,12.2-12.2,12.2h-79.4c-6.7,0-12.2-5.5-12.2-12.2
		V119.3C233.7,112.5,239.2,107.1,245.9,107.1z"/>
	<path class="st1" d="M233.7,119.3h103.9v140.6H233.7V119.3z"/>
	<path class="st0" d="M291.8,272.1c0,3.4-2.7,6.1-6.1,6.1s-6.1-2.7-6.1-6.1c0-3.4,2.7-6.1,6.1-6.1S291.8,268.7,291.8,272.1z"/>
	<g>
		<g>
			<path class="st2" d="M340.6,272.1V119.3c0-8.4-6.8-15.3-15.3-15.3h-79.4c-8.4,0-15.3,6.8-15.3,15.3v152.8
				c0,8.4,6.8,15.3,15.3,15.3h79.4C333.8,287.3,340.6,280.5,340.6,272.1z M236.8,122.3h97.8v134.4h-97.8V122.3z M245.9,110.1h79.4
				c3.9,0,7.3,2.5,8.6,6.1h-96.7C238.6,112.6,242,110.1,245.9,110.1z M245.9,281.2c-5.1,0-9.2-4.1-9.2-9.2v-9.2h97.8v9.2
				c0,5.1-4.1,9.2-9.2,9.2H245.9z"/>
		</g>
	</g>
	<g>
		<g>
			<path class="st2" d="M294.8,272.1c0-5.1-4.1-9.2-9.2-9.2s-9.2,4.1-9.2,9.2s4.1,9.2,9.2,9.2S294.8,277.1,294.8,272.1z
				 M285.6,275.1c-1.7,0-3.1-1.4-3.1-3.1c0-1.7,1.4-3.1,3.1-3.1s3.1,1.4,3.1,3.1C288.7,273.7,287.3,275.1,285.6,275.1z"/>
		</g>
	</g>
	<g>
		<path class="st0" d="M150.2,189.6h-2.5c0,14.4-11.7,26.2-26.2,26.2S95.3,204,95.3,189.6c0-13.3,10-24.4,23-26l-2.6,2.6l1.8,1.8
			l5.9-5.9l-5.9-5.9l-1.8,1.8l3,3c-14.5,1.4-25.8,13.7-25.8,28.5c0,15.8,12.9,28.7,28.7,28.7S150.2,205.4,150.2,189.6z"/>
		<path class="st0" d="M112.7,151.9l2.4-0.5l0.5,2.4l-2.4,0.5L112.7,151.9z"/>
		<path class="st0" d="M105.5,154.4l2.3-1l1,2.3l-2.3,1L105.5,154.4z"/>
		<path class="st0" d="M99,158.1l2.1-1.4l1.4,2.1l-2.1,1.4L99,158.1z"/>
		<path class="st0" d="M93.3,163.1l1.8-1.8l1.8,1.8l-1.8,1.8L93.3,163.1z"/>
		<path class="st0" d="M93.5,166.7l-1.9-1.6c-5.6,6.9-8.7,15.6-8.7,24.5c0,9.5,3.5,18.7,9.8,25.8l1.9-1.7
			c-5.9-6.6-9.2-15.2-9.2-24.1C85.3,181.3,88.2,173.1,93.5,166.7z"/>
		<path class="st0" d="M127.3,225.3l2.4-0.5l0.5,2.4l-2.4,0.5L127.3,225.3z"/>
		<path class="st0" d="M134.2,223.5l2.3-1l1,2.3l-2.3,1L134.2,223.5z"/>
		<path class="st0" d="M140.5,220.4l2.1-1.4l1.4,2.1l-2.1,1.4L140.5,220.4z"/>
		<path class="st0" d="M146.2,216.1l1.8-1.8l1.8,1.8l-1.8,1.8L146.2,216.1z"/>
		<path class="st0" d="M150.3,163.8l-1.9,1.7c5.9,6.6,9.2,15.2,9.2,24.1c0,8.3-2.9,16.5-8.2,22.9l1.9,1.6c5.6-6.9,8.7-15.6,8.7-24.5
			C160.1,180.1,156.6,170.9,150.3,163.8z"/>
	</g>
	<g>
		<g>
			<path class="st0" d="M129.6,191.6c-1-0.7-2.4-1.3-4.3-1.8l-1.5-0.3v-6.3c0,0,0.1,0.1,0.1,0.1s0.1,0,0.1,0.1
				c1.3,0.6,1.9,1.6,2,3.1h5c-0.1-2.6-1.1-4.6-2.9-6c-1.2-0.9-2.6-1.5-4.3-1.8v-3.5h-4.6v3.4c-2.2,0.3-3.9,1-5.1,2.1
				c-1.6,1.5-2.5,3.3-2.5,5.6c0,2.4,0.8,4.2,2.5,5.4c0.9,0.7,2.6,1.3,5.1,1.8v6.8c-0.9-0.3-1.6-0.7-2.1-1.2c-0.5-0.6-0.8-1.4-1-2.5
				h-4.9c0,2.6,0.9,4.6,2.8,6.1c1.3,1,3.1,1.7,5.2,2v2.6h4.6v-2.5c2.3-0.3,4.1-1,5.4-2.1c1.7-1.5,2.6-3.4,2.6-5.7
				C131.8,194.5,131.1,192.8,129.6,191.6z M119.2,188.4c-0.7-0.2-1.3-0.4-1.6-0.6c-0.8-0.4-1.2-1.1-1.2-2c0-1,0.4-1.8,1.2-2.3
				c0.4-0.3,1-0.5,1.6-0.7V188.4z M124.6,200c-0.2,0.1-0.5,0.2-0.8,0.2v-5.8c0.8,0.3,1.5,0.5,1.9,0.8c0.7,0.5,1.1,1.1,1.1,2
				C126.8,198.6,126.1,199.5,124.6,200z"/>
		</g>
	</g>
	<g>
		<path class="st0" d="M276.7,176.5c0-2.3-0.9-4.4-2.5-6c2.4-1,5.2-0.4,7,1.4l1.5-1.6c-2.8-2.7-7.1-3.3-10.5-1.3
			c-2.7-1.6-6-1.6-8.7,0c-2.7,1.6-4.4,4.4-4.4,7.5v4.4h-4.4c-0.6,0-1.1,0.5-1.1,1.1v37c0,0.6,0.5,1.1,1.1,1.1h22.9v-2.2h-13.1V183
			h3.3v4.4h2.2V183h7.6v-2.2h-1.1V176.5z M260.2,211.8c-0.2-0.3-0.5-0.5-0.9-0.5c-0.4,0-0.7,0.2-0.9,0.5l-2.4,3.5v-29.8l2.4,3.5
			c0.2,0.3,0.5,0.5,0.9,0.5c0.4,0,0.7-0.2,0.9-0.5l2.4-3.5v29.8L260.2,211.8z M261.6,217.8H257l2.3-3.5L261.6,217.8z M259.3,186.5
			L257,183h4.6L259.3,186.5z M261.5,180.8v-4.4c0-2.2,1.1-4.2,2.9-5.4c1.8-1.2,4.1-1.4,6.1-0.6c-1.6,1.6-2.5,3.8-2.5,6v4.4H261.5z
			 M270.2,176.5c0-1.9,0.8-3.6,2.2-4.9c1.4,1.2,2.2,3,2.2,4.9v4.4h-4.4V176.5z"/>
		<path class="st0" d="M288.6,169.3c0.1-0.2,0.1-0.3,0.1-0.5v-7.6h4.4v7.6c0,0.2,0,0.3,0.1,0.5l6.5,13.1l1.9-1l-6.4-12.8v-12.8
			c0-0.6-0.5-1.1-1.1-1.1h-6.5c-0.6,0-1.1,0.5-1.1,1.1v12.8l-6.4,12.8c-0.1,0.2-0.1,0.3-0.1,0.5v37c0,0.6,0.5,1.1,1.1,1.1h7.6v-2.2
			h-6.5v-35.7L288.6,169.3z M293,156.9v2.2h-4.4v-2.2H293z"/>
		<path class="st0" d="M319,196.6l-4.2-7.4v-4.1c0-0.6-0.5-1.1-1.1-1.1h-17.4c-0.6,0-1.1,0.5-1.1,1.1v4.1l-4.2,7.4
			c-0.1,0.2-0.1,0.4-0.1,0.5v21.8c0,0.6,0.5,1.1,1.1,1.1h26.1c0.6,0,1.1-0.5,1.1-1.1v-21.8C319.2,197,319.1,196.8,319,196.6z
			 M316.2,196.1h-5l2.5-4.3L316.2,196.1z M297.4,186.3h15.2v2.2h-15.2V186.3z M296.9,190.6h14.9l-3.1,5.4h-14.9L296.9,190.6z
			 M308.3,217.8H293v-19.6h15.2V217.8z M317,217.8h-6.5v-19.6h6.5V217.8z"/>
	</g>
	<g>
		<path class="st0" d="M228.3,156.7H171c-3.6,0-6.6-2.9-6.6-6.6v0c0-3.6,2.9-6.6,6.6-6.6h57.2c3.6,0,6.6,2.9,6.6,6.6v0
			C234.8,153.8,231.9,156.7,228.3,156.7z"/>
		<path class="st0" d="M233.5,158.2l-27.6-27.6c-0.8-0.8-0.8-2.1,0-2.9l5.3-5.3c0.9-0.9,2.4-0.9,3.4,0l27.4,27.4L233.5,158.2z"/>
		<path class="st0" d="M233.5,141.5l-27.4,27.4c-0.9,0.9-0.9,2.4,0,3.3l4.5,4.5c1.2,1.2,3.2,1.2,4.4,0l26.9-26.9L233.5,141.5z"/>
	</g>
	<g>
		<path class="st0" d="M178.2,234.9h57.2c3.6,0,6.6-2.9,6.6-6.6v0c0-3.6-2.9-6.6-6.6-6.6h-57.2c-3.6,0-6.6,2.9-6.6,6.6v0
			C171.6,232,174.5,234.9,178.2,234.9z"/>
		<path class="st0" d="M172.9,236.4l27.6-27.6c0.8-0.8,0.8-2.1,0-2.9l-5.3-5.3c-0.9-0.9-2.4-0.9-3.4,0l-27.4,27.4L172.9,236.4z"/>
		<path class="st0" d="M172.9,219.7l27.4,27.4c0.9,0.9,0.9,2.4,0,3.3l-4.5,4.5c-1.2,1.2-3.2,1.2-4.4,0l-26.9-26.9L172.9,219.7z"/>
	</g>
</g>
</svg>
